# xmcd
# 
# Track frame offsets:
#     150
#     12715
#     23856
#     52963
#     83110
#     108081
#     127753
#     146920
#     157939
#     191236
#     207827
#     229946
#     262216
# 
# Disc length: 3978
# 
# Revision: 34
# Processed by: cddbd v1.5.2PL0 Copyright (c) Steve Scherf et al.
# Submitted via: fre:ac v1.1beta1pre5
# 
DISCID=b20f880d
DTITLE=Led Zeppelin - Mothership [CD1)
DYEAR=2007
DGENRE=Rock
TTITLE0=Good times bad times
TTITLE1=Communication breakdown
TTITLE2=Dazed and confused
TTITLE3=Babe I'm gonna leave you
TTITLE4=Whole lotta love
TTITLE5=Ramble on
TTITLE6=Heartbreaker
TTITLE7=Immigrant song
TTITLE8=Since I've been loving you
TTITLE9=Rock and roll
TTITLE10=Black dog
TTITLE11=When the levee breaks
TTITLE12=Stairway to heaven
EXTD=
EXTT0=
EXTT1=
EXTT2=
EXTT3=
EXTT4=
EXTT5=
EXTT6=
EXTT7=
EXTT8=
EXTT9=
EXTT10=
EXTT11=
EXTT12=
PLAYORDER=
